<svg width="12" height="17" viewBox="0 0 12 17" fill="none" xmlns="http://www.w3.org/2000/svg">
<g filter="url(#filter0_i_48_37)">
<g filter="url(#filter1_ii_48_37)">
<path d="M10.3434 3.06836C10.1494 1.54681 5.18918 0.509431 3.97974 1.89262C1.65157 4.55531 2.27242 4.90113 1.14714 9.77698C0.0218551 14.6528 5.68703 16.5894 6.73475 15.1715C10.0871 9.281 10.5009 5.96325 10.4343 4.11366C10.4192 3.69392 10.3793 3.34979 10.3434 3.06836Z" fill="url(#paint0_linear_48_37)"/>
</g>
<path d="M10.4343 4.11366C10.4192 3.69392 10.3793 3.34979 10.3434 3.06836C10.1494 1.54681 5.18918 0.509431 3.97974 1.89262C1.65157 4.55531 2.27242 4.90113 1.14714 9.77698C0.0218551 14.6528 5.68703 16.5894 6.73475 15.1715C10.0871 9.281 10.5009 5.96325 10.4343 4.11366ZM10.4343 4.11366C10.6229 3.44534 11 1.68695 11 0" stroke="#1F305C"/>
<g filter="url(#filter2_i_48_37)">
<path d="M2.81812 10.8545C2.87639 10.9352 3.39853 11.1103 5.02091 11.1656C6.64329 11.2209 6.90902 11.5113 6.83909 11.6496" stroke="#1F305C" stroke-linecap="round"/>
</g>
<g filter="url(#filter3_i_48_37)">
<path d="M2.6084 12.4446C2.93474 12.5368 3.82518 12.7211 4.77623 12.7211C5.72728 12.7211 6.05828 13.0207 6.1049 13.1705" stroke="#1F305C" stroke-linecap="round"/>
</g>
<g filter="url(#filter4_i_48_37)">
<path d="M3.16785 9.16064C3.38929 9.41415 4.12589 9.88658 5.30071 9.74831C6.47554 9.61004 7.21214 9.87506 7.43358 10.0249" stroke="#1F305C" stroke-linecap="round"/>
</g>
<g filter="url(#filter5_i_48_37)">
<path d="M8.73246 3.66102C8.98421 2.47186 5.26952 2.48572 4.71149 3.1425C3.97722 4.00672 3.83037 5.07142 3.52268 6.28823C3.13806 7.80925 4.25694 7.87839 6.24995 7.98209C8.24295 8.0858 8.41778 5.14747 8.73246 3.66102Z" fill="url(#paint1_radial_48_37)"/>
</g>
<path d="M8.73246 3.66102C8.98421 2.47186 5.26952 2.48572 4.71149 3.1425C3.97722 4.00672 3.83037 5.07142 3.52268 6.28823C3.13806 7.80925 4.25694 7.87839 6.24995 7.98209C8.24295 8.0858 8.41778 5.14747 8.73246 3.66102Z" stroke="#1F305C" stroke-linecap="round"/>
</g>
<defs>
<filter id="filter0_i_48_37" x="0.499512" y="0" width="11.2505" height="17.1248" filterUnits="userSpaceOnUse" color-interpolation-filters="sRGB">
<feFlood flood-opacity="0" result="BackgroundImageFix"/>
<feBlend mode="normal" in="SourceGraphic" in2="BackgroundImageFix" result="shape"/>
<feColorMatrix in="SourceAlpha" type="matrix" values="0 0 0 0 0 0 0 0 0 0 0 0 0 0 0 0 0 0 127 0" result="hardAlpha"/>
<feOffset dx="0.25" dy="1"/>
<feGaussianBlur stdDeviation="0.5"/>
<feComposite in2="hardAlpha" operator="arithmetic" k2="-1" k3="1"/>
<feColorMatrix type="matrix" values="0 0 0 0 1 0 0 0 0 1 0 0 0 0 1 0 0 0 0.25 0"/>
<feBlend mode="normal" in2="shape" result="effect1_innerShadow_48_37"/>
</filter>
<filter id="filter1_ii_48_37" x="0.499512" y="0" width="14.0005" height="20.1248" filterUnits="userSpaceOnUse" color-interpolation-filters="sRGB">
<feFlood flood-opacity="0" result="BackgroundImageFix"/>
<feBlend mode="normal" in="SourceGraphic" in2="BackgroundImageFix" result="shape"/>
<feColorMatrix in="SourceAlpha" type="matrix" values="0 0 0 0 0 0 0 0 0 0 0 0 0 0 0 0 0 0 127 0" result="hardAlpha"/>
<feOffset dx="4" dy="4"/>
<feGaussianBlur stdDeviation="1.5"/>
<feComposite in2="hardAlpha" operator="arithmetic" k2="-1" k3="1"/>
<feColorMatrix type="matrix" values="0 0 0 0 1 0 0 0 0 1 0 0 0 0 1 0 0 0 0.25 0"/>
<feBlend mode="normal" in2="shape" result="effect1_innerShadow_48_37"/>
<feColorMatrix in="SourceAlpha" type="matrix" values="0 0 0 0 0 0 0 0 0 0 0 0 0 0 0 0 0 0 127 0" result="hardAlpha"/>
<feOffset dy="5"/>
<feGaussianBlur stdDeviation="2"/>
<feComposite in2="hardAlpha" operator="arithmetic" k2="-1" k3="1"/>
<feColorMatrix type="matrix" values="0 0 0 0 0 0 0 0 0 0 0 0 0 0 0 0 0 0 0.25 0"/>
<feBlend mode="normal" in2="effect1_innerShadow_48_37" result="effect2_innerShadow_48_37"/>
</filter>
<filter id="filter2_i_48_37" x="2.31812" y="10.3545" width="7.03149" height="3.79517" filterUnits="userSpaceOnUse" color-interpolation-filters="sRGB">
<feFlood flood-opacity="0" result="BackgroundImageFix"/>
<feBlend mode="normal" in="SourceGraphic" in2="BackgroundImageFix" result="shape"/>
<feColorMatrix in="SourceAlpha" type="matrix" values="0 0 0 0 0 0 0 0 0 0 0 0 0 0 0 0 0 0 127 0" result="hardAlpha"/>
<feOffset dx="3" dy="2"/>
<feGaussianBlur stdDeviation="1"/>
<feComposite in2="hardAlpha" operator="arithmetic" k2="-1" k3="1"/>
<feColorMatrix type="matrix" values="0 0 0 0 1 0 0 0 0 1 0 0 0 0 1 0 0 0 0.25 0"/>
<feBlend mode="normal" in2="shape" result="effect1_innerShadow_48_37"/>
</filter>
<filter id="filter3_i_48_37" x="2.10828" y="11.9445" width="6.4967" height="3.7262" filterUnits="userSpaceOnUse" color-interpolation-filters="sRGB">
<feFlood flood-opacity="0" result="BackgroundImageFix"/>
<feBlend mode="normal" in="SourceGraphic" in2="BackgroundImageFix" result="shape"/>
<feColorMatrix in="SourceAlpha" type="matrix" values="0 0 0 0 0 0 0 0 0 0 0 0 0 0 0 0 0 0 127 0" result="hardAlpha"/>
<feOffset dx="3" dy="2"/>
<feGaussianBlur stdDeviation="1"/>
<feComposite in2="hardAlpha" operator="arithmetic" k2="-1" k3="1"/>
<feColorMatrix type="matrix" values="0 0 0 0 1 0 0 0 0 1 0 0 0 0 1 0 0 0 0.25 0"/>
<feBlend mode="normal" in2="shape" result="effect1_innerShadow_48_37"/>
</filter>
<filter id="filter4_i_48_37" x="2.66785" y="8.66064" width="7.26575" height="3.86426" filterUnits="userSpaceOnUse" color-interpolation-filters="sRGB">
<feFlood flood-opacity="0" result="BackgroundImageFix"/>
<feBlend mode="normal" in="SourceGraphic" in2="BackgroundImageFix" result="shape"/>
<feColorMatrix in="SourceAlpha" type="matrix" values="0 0 0 0 0 0 0 0 0 0 0 0 0 0 0 0 0 0 127 0" result="hardAlpha"/>
<feOffset dx="3" dy="2"/>
<feGaussianBlur stdDeviation="1"/>
<feComposite in2="hardAlpha" operator="arithmetic" k2="-1" k3="1"/>
<feColorMatrix type="matrix" values="0 0 0 0 1 0 0 0 0 1 0 0 0 0 1 0 0 0 0.25 0"/>
<feBlend mode="normal" in2="shape" result="effect1_innerShadow_48_37"/>
</filter>
<filter id="filter5_i_48_37" x="2.94751" y="2.19641" width="8.29724" height="8.28833" filterUnits="userSpaceOnUse" color-interpolation-filters="sRGB">
<feFlood flood-opacity="0" result="BackgroundImageFix"/>
<feBlend mode="normal" in="SourceGraphic" in2="BackgroundImageFix" result="shape"/>
<feColorMatrix in="SourceAlpha" type="matrix" values="0 0 0 0 0 0 0 0 0 0 0 0 0 0 0 0 0 0 127 0" result="hardAlpha"/>
<feOffset dx="3" dy="2"/>
<feGaussianBlur stdDeviation="1"/>
<feComposite in2="hardAlpha" operator="arithmetic" k2="-1" k3="1"/>
<feColorMatrix type="matrix" values="0 0 0 0 1 0 0 0 0 1 0 0 0 0 1 0 0 0 0.25 0"/>
<feBlend mode="normal" in2="shape" result="effect1_innerShadow_48_37"/>
</filter>
<linearGradient id="paint0_linear_48_37" x1="7.5035" y1="1.52102" x2="3.66966" y2="15.6473" gradientUnits="userSpaceOnUse">
<stop stop-color="#F9FEFF"/>
<stop offset="1" stop-color="#8293B9"/>
</linearGradient>
<radialGradient id="paint1_radial_48_37" cx="0" cy="0" r="1" gradientUnits="userSpaceOnUse" gradientTransform="translate(5.09087 4.63225) rotate(73.309) scale(3.49998 3.4993)">
<stop stop-color="#BCE4EB"/>
<stop offset="1" stop-color="#0083AE"/>
</radialGradient>
</defs>
</svg>
